<mxfile host="app.diagrams.net" modified="2024-03-07T07:29:51.183Z" agent="Mozilla/5.0 (Windows NT 10.0; Win64; x64) AppleWebKit/537.36 (KHTML, like Gecko) Chrome/122.0.0.0 Safari/537.36 Edg/122.0.0.0" etag="Gn5G2bpleTujTKGwgqm9" version="24.0.2" type="device">
  <diagram name="Page-1" id="FCpoxG8WRANTq8YYbft5">
    <mxGraphModel dx="2981" dy="2546" grid="1" gridSize="10" guides="1" tooltips="1" connect="1" arrows="1" fold="1" page="1" pageScale="1" pageWidth="850" pageHeight="1100" math="0" shadow="0">
      <root>
        <mxCell id="0" />
        <mxCell id="1" parent="0" />
        <mxCell id="qpLSKPqk3YdfdB79UOGh-33" value="pointer copy" style="text;html=1;align=center;verticalAlign=middle;whiteSpace=wrap;rounded=0;" parent="1" vertex="1">
          <mxGeometry x="620" y="253" width="80" height="30" as="geometry" />
        </mxCell>
        <mxCell id="qpLSKPqk3YdfdB79UOGh-1" value="" style="rounded=0;whiteSpace=wrap;html=1;" parent="1" vertex="1">
          <mxGeometry x="190" y="240" width="420" height="210" as="geometry" />
        </mxCell>
        <mxCell id="qpLSKPqk3YdfdB79UOGh-2" value="" style="rounded=0;whiteSpace=wrap;html=1;" parent="1" vertex="1">
          <mxGeometry x="200" y="550" width="410" height="200" as="geometry" />
        </mxCell>
        <mxCell id="qpLSKPqk3YdfdB79UOGh-3" value="" style="rounded=0;whiteSpace=wrap;html=1;" parent="1" vertex="1">
          <mxGeometry x="-140" y="780" width="270" height="120" as="geometry" />
        </mxCell>
        <mxCell id="qpLSKPqk3YdfdB79UOGh-4" value="AuraBaseCharacter" style="text;html=1;align=center;verticalAlign=middle;whiteSpace=wrap;rounded=0;" parent="1" vertex="1">
          <mxGeometry x="220" y="240" width="60" height="30" as="geometry" />
        </mxCell>
        <mxCell id="qpLSKPqk3YdfdB79UOGh-5" value="Weapon" style="rounded=0;whiteSpace=wrap;html=1;" parent="1" vertex="1">
          <mxGeometry x="215" y="310" width="115" height="20" as="geometry" />
        </mxCell>
        <mxCell id="qpLSKPqk3YdfdB79UOGh-6" value="ASC" style="rounded=0;whiteSpace=wrap;html=1;" parent="1" vertex="1">
          <mxGeometry x="342.5" y="310" width="115" height="20" as="geometry" />
        </mxCell>
        <mxCell id="qpLSKPqk3YdfdB79UOGh-7" value="AttributeSet" style="rounded=0;whiteSpace=wrap;html=1;" parent="1" vertex="1">
          <mxGeometry x="470" y="310" width="115" height="20" as="geometry" />
        </mxCell>
        <mxCell id="qpLSKPqk3YdfdB79UOGh-8" value="TSubClass&amp;lt;GamePlayEffect&amp;gt;&amp;nbsp; Primary/Secondary/Vital_Attributes" style="rounded=0;whiteSpace=wrap;html=1;" parent="1" vertex="1">
          <mxGeometry x="215" y="335" width="385" height="20" as="geometry" />
        </mxCell>
        <mxCell id="qpLSKPqk3YdfdB79UOGh-10" value="InitializeDefaultAttributes()" style="rounded=1;whiteSpace=wrap;html=1;" parent="1" vertex="1">
          <mxGeometry x="215" y="380" width="175" height="20" as="geometry" />
        </mxCell>
        <mxCell id="qpLSKPqk3YdfdB79UOGh-11" value="ApplyEffectToSelf()" style="rounded=1;whiteSpace=wrap;html=1;" parent="1" vertex="1">
          <mxGeometry x="213" y="410" width="177" height="20" as="geometry" />
        </mxCell>
        <mxCell id="qpLSKPqk3YdfdB79UOGh-12" value="AuraCharacter" style="text;html=1;align=center;verticalAlign=middle;whiteSpace=wrap;rounded=0;" parent="1" vertex="1">
          <mxGeometry x="220" y="550" width="60" height="30" as="geometry" />
        </mxCell>
        <mxCell id="qpLSKPqk3YdfdB79UOGh-13" value="" style="endArrow=classic;html=1;rounded=0;" parent="1" source="qpLSKPqk3YdfdB79UOGh-2" target="qpLSKPqk3YdfdB79UOGh-1" edge="1">
          <mxGeometry width="50" height="50" relative="1" as="geometry">
            <mxPoint x="350" y="530" as="sourcePoint" />
            <mxPoint x="400" y="480" as="targetPoint" />
          </mxGeometry>
        </mxCell>
        <mxCell id="qpLSKPqk3YdfdB79UOGh-14" value="" style="endArrow=classic;html=1;rounded=0;" parent="1" source="qpLSKPqk3YdfdB79UOGh-1" target="qpLSKPqk3YdfdB79UOGh-15" edge="1">
          <mxGeometry width="50" height="50" relative="1" as="geometry">
            <mxPoint x="401" y="250" as="sourcePoint" />
            <mxPoint x="399" y="150" as="targetPoint" />
          </mxGeometry>
        </mxCell>
        <mxCell id="qpLSKPqk3YdfdB79UOGh-15" value="" style="rounded=0;whiteSpace=wrap;html=1;" parent="1" vertex="1">
          <mxGeometry x="270" y="80" width="270" height="70" as="geometry" />
        </mxCell>
        <mxCell id="qpLSKPqk3YdfdB79UOGh-16" value="ACharacter" style="text;html=1;align=center;verticalAlign=middle;whiteSpace=wrap;rounded=0;" parent="1" vertex="1">
          <mxGeometry x="280" y="80" width="60" height="30" as="geometry" />
        </mxCell>
        <mxCell id="qpLSKPqk3YdfdB79UOGh-17" value="" style="rounded=0;whiteSpace=wrap;html=1;" parent="1" vertex="1">
          <mxGeometry x="270" width="270" height="70" as="geometry" />
        </mxCell>
        <mxCell id="qpLSKPqk3YdfdB79UOGh-18" value="GetCharecterMovement()" style="rounded=1;whiteSpace=wrap;html=1;" parent="1" vertex="1">
          <mxGeometry x="282.5" y="110" width="175" height="20" as="geometry" />
        </mxCell>
        <mxCell id="qpLSKPqk3YdfdB79UOGh-19" value="APawn" style="text;html=1;align=center;verticalAlign=middle;whiteSpace=wrap;rounded=0;" parent="1" vertex="1">
          <mxGeometry x="266" y="-5" width="60" height="30" as="geometry" />
        </mxCell>
        <mxCell id="qpLSKPqk3YdfdB79UOGh-20" value="GetPlayerState()" style="rounded=1;whiteSpace=wrap;html=1;" parent="1" vertex="1">
          <mxGeometry x="282.5" y="22" width="175" height="20" as="geometry" />
        </mxCell>
        <mxCell id="qpLSKPqk3YdfdB79UOGh-21" value="InitAbilityActorInfo()" style="rounded=1;whiteSpace=wrap;html=1;" parent="1" vertex="1">
          <mxGeometry x="230" y="690" width="177" height="20" as="geometry" />
        </mxCell>
        <mxCell id="qpLSKPqk3YdfdB79UOGh-22" value="PossessedBy()" style="rounded=1;whiteSpace=wrap;html=1;" parent="1" vertex="1">
          <mxGeometry x="230" y="640" width="177" height="20" as="geometry" />
        </mxCell>
        <mxCell id="qpLSKPqk3YdfdB79UOGh-23" value="OnRep_PlayerState()" style="rounded=1;whiteSpace=wrap;html=1;" parent="1" vertex="1">
          <mxGeometry x="230" y="666" width="177" height="20" as="geometry" />
        </mxCell>
        <mxCell id="qpLSKPqk3YdfdB79UOGh-24" value="" style="curved=1;endArrow=classic;html=1;rounded=0;exitX=1;exitY=0.5;exitDx=0;exitDy=0;entryX=1;entryY=0.5;entryDx=0;entryDy=0;" parent="1" source="qpLSKPqk3YdfdB79UOGh-22" target="qpLSKPqk3YdfdB79UOGh-21" edge="1">
          <mxGeometry width="50" height="50" relative="1" as="geometry">
            <mxPoint x="440" y="670" as="sourcePoint" />
            <mxPoint x="490" y="620" as="targetPoint" />
            <Array as="points">
              <mxPoint x="440" y="660" />
            </Array>
          </mxGeometry>
        </mxCell>
        <mxCell id="qpLSKPqk3YdfdB79UOGh-25" value="" style="curved=1;endArrow=classic;html=1;rounded=0;exitX=1;exitY=0.5;exitDx=0;exitDy=0;entryX=1;entryY=0.5;entryDx=0;entryDy=0;" parent="1" source="qpLSKPqk3YdfdB79UOGh-23" target="qpLSKPqk3YdfdB79UOGh-21" edge="1">
          <mxGeometry width="50" height="50" relative="1" as="geometry">
            <mxPoint x="417" y="660" as="sourcePoint" />
            <mxPoint x="417" y="686" as="targetPoint" />
            <Array as="points">
              <mxPoint x="430" y="680" />
              <mxPoint x="440" y="690" />
            </Array>
          </mxGeometry>
        </mxCell>
        <mxCell id="qpLSKPqk3YdfdB79UOGh-26" value="" style="rounded=0;whiteSpace=wrap;html=1;" parent="1" vertex="1">
          <mxGeometry x="691" y="93" width="410" height="110" as="geometry" />
        </mxCell>
        <mxCell id="qpLSKPqk3YdfdB79UOGh-27" value="AuraPlayerState" style="text;html=1;align=center;verticalAlign=middle;whiteSpace=wrap;rounded=0;" parent="1" vertex="1">
          <mxGeometry x="711" y="93" width="60" height="30" as="geometry" />
        </mxCell>
        <mxCell id="qpLSKPqk3YdfdB79UOGh-29" value="Create ASC" style="rounded=0;whiteSpace=wrap;html=1;" parent="1" vertex="1">
          <mxGeometry x="711" y="163" width="115" height="20" as="geometry" />
        </mxCell>
        <mxCell id="qpLSKPqk3YdfdB79UOGh-30" value="Create AttributeSet" style="rounded=0;whiteSpace=wrap;html=1;" parent="1" vertex="1">
          <mxGeometry x="851" y="163" width="115" height="20" as="geometry" />
        </mxCell>
        <mxCell id="qpLSKPqk3YdfdB79UOGh-31" value="" style="curved=1;endArrow=classic;html=1;rounded=0;entryX=0.75;entryY=0;entryDx=0;entryDy=0;exitX=0;exitY=0.5;exitDx=0;exitDy=0;dashed=1;" parent="1" source="qpLSKPqk3YdfdB79UOGh-29" target="qpLSKPqk3YdfdB79UOGh-6" edge="1">
          <mxGeometry width="50" height="50" relative="1" as="geometry">
            <mxPoint x="580" y="370" as="sourcePoint" />
            <mxPoint x="630" y="320" as="targetPoint" />
            <Array as="points">
              <mxPoint x="590" y="250" />
            </Array>
          </mxGeometry>
        </mxCell>
        <mxCell id="qpLSKPqk3YdfdB79UOGh-32" value="" style="curved=1;endArrow=classic;html=1;rounded=0;entryX=0.75;entryY=0;entryDx=0;entryDy=0;exitX=0;exitY=0.5;exitDx=0;exitDy=0;dashed=1;" parent="1" source="qpLSKPqk3YdfdB79UOGh-30" target="qpLSKPqk3YdfdB79UOGh-7" edge="1">
          <mxGeometry width="50" height="50" relative="1" as="geometry">
            <mxPoint x="789" y="320" as="sourcePoint" />
            <mxPoint x="439" y="320" as="targetPoint" />
            <Array as="points">
              <mxPoint x="720" y="240" />
            </Array>
          </mxGeometry>
        </mxCell>
        <mxCell id="qpLSKPqk3YdfdB79UOGh-35" value="GetController()" style="rounded=1;whiteSpace=wrap;html=1;" parent="1" vertex="1">
          <mxGeometry x="282.5" y="45" width="175" height="20" as="geometry" />
        </mxCell>
        <mxCell id="qpLSKPqk3YdfdB79UOGh-36" value="HUD-&amp;gt;InitOverlay(...)" style="rounded=1;whiteSpace=wrap;html=1;" parent="1" vertex="1">
          <mxGeometry x="230" y="716" width="177" height="20" as="geometry" />
        </mxCell>
        <mxCell id="qpLSKPqk3YdfdB79UOGh-38" value="" style="curved=1;endArrow=classic;html=1;rounded=0;exitX=0;exitY=0.5;exitDx=0;exitDy=0;entryX=0;entryY=0.5;entryDx=0;entryDy=0;dashed=1;" parent="1" source="qpLSKPqk3YdfdB79UOGh-21" target="qpLSKPqk3YdfdB79UOGh-10" edge="1">
          <mxGeometry width="50" height="50" relative="1" as="geometry">
            <mxPoint x="120" y="700" as="sourcePoint" />
            <mxPoint x="170" y="650" as="targetPoint" />
            <Array as="points">
              <mxPoint x="100" y="570" />
            </Array>
          </mxGeometry>
        </mxCell>
        <mxCell id="qpLSKPqk3YdfdB79UOGh-39" value="Level" style="rounded=0;whiteSpace=wrap;html=1;" parent="1" vertex="1">
          <mxGeometry x="981" y="163" width="70" height="20" as="geometry" />
        </mxCell>
        <mxCell id="qpLSKPqk3YdfdB79UOGh-40" value="" style="rounded=0;whiteSpace=wrap;html=1;" parent="1" vertex="1">
          <mxGeometry x="730" y="460" width="410" height="110" as="geometry" />
        </mxCell>
        <mxCell id="qpLSKPqk3YdfdB79UOGh-41" value="AuraASC" style="text;html=1;align=center;verticalAlign=middle;whiteSpace=wrap;rounded=0;" parent="1" vertex="1">
          <mxGeometry x="740" y="454" width="60" height="30" as="geometry" />
        </mxCell>
        <mxCell id="qpLSKPqk3YdfdB79UOGh-42" value="SetAbilityActorInfo" style="rounded=1;whiteSpace=wrap;html=1;" parent="1" vertex="1">
          <mxGeometry x="740" y="530" width="177" height="20" as="geometry" />
        </mxCell>
        <mxCell id="qpLSKPqk3YdfdB79UOGh-43" value="" style="rounded=0;whiteSpace=wrap;html=1;" parent="1" vertex="1">
          <mxGeometry x="721" y="13" width="270" height="40" as="geometry" />
        </mxCell>
        <mxCell id="qpLSKPqk3YdfdB79UOGh-44" value="APlayerState" style="text;html=1;align=center;verticalAlign=middle;whiteSpace=wrap;rounded=0;" parent="1" vertex="1">
          <mxGeometry x="731" y="13" width="60" height="30" as="geometry" />
        </mxCell>
        <mxCell id="qpLSKPqk3YdfdB79UOGh-45" value="" style="endArrow=classic;html=1;rounded=0;" parent="1" source="qpLSKPqk3YdfdB79UOGh-26" target="qpLSKPqk3YdfdB79UOGh-43" edge="1">
          <mxGeometry width="50" height="50" relative="1" as="geometry">
            <mxPoint x="801" y="103" as="sourcePoint" />
            <mxPoint x="851" y="53" as="targetPoint" />
          </mxGeometry>
        </mxCell>
        <mxCell id="qpLSKPqk3YdfdB79UOGh-46" value="" style="rounded=0;whiteSpace=wrap;html=1;" parent="1" vertex="1">
          <mxGeometry x="735" y="380" width="410" height="60" as="geometry" />
        </mxCell>
        <mxCell id="qpLSKPqk3YdfdB79UOGh-47" value="UAbilitySystemComponent" style="text;html=1;align=center;verticalAlign=middle;whiteSpace=wrap;rounded=0;" parent="1" vertex="1">
          <mxGeometry x="795.5" y="377" width="60" height="30" as="geometry" />
        </mxCell>
        <mxCell id="qpLSKPqk3YdfdB79UOGh-49" value="FOnGameplayEffectAppliedDelegate xxxToSelf/ToTarget" style="rounded=0;whiteSpace=wrap;html=1;" parent="1" vertex="1">
          <mxGeometry x="760" y="410" width="360" height="20" as="geometry" />
        </mxCell>
        <mxCell id="qpLSKPqk3YdfdB79UOGh-50" value="" style="endArrow=classic;html=1;rounded=0;exitX=0.5;exitY=0;exitDx=0;exitDy=0;entryX=0.468;entryY=1.006;entryDx=0;entryDy=0;entryPerimeter=0;" parent="1" source="qpLSKPqk3YdfdB79UOGh-40" target="qpLSKPqk3YdfdB79UOGh-46" edge="1">
          <mxGeometry width="50" height="50" relative="1" as="geometry">
            <mxPoint x="940" y="520" as="sourcePoint" />
            <mxPoint x="990" y="470" as="targetPoint" />
          </mxGeometry>
        </mxCell>
        <mxCell id="qpLSKPqk3YdfdB79UOGh-51" value="MULTICAST_DELEGATE&amp;nbsp; &amp;nbsp;FOnEffectApplied_AssetsTags" style="rounded=0;whiteSpace=wrap;html=1;" parent="1" vertex="1">
          <mxGeometry x="745" y="490" width="315" height="20" as="geometry" />
        </mxCell>
        <mxCell id="qpLSKPqk3YdfdB79UOGh-52" value="" style="curved=1;endArrow=classic;html=1;rounded=0;exitX=0;exitY=0.5;exitDx=0;exitDy=0;entryX=0;entryY=0.5;entryDx=0;entryDy=0;dashed=1;" parent="1" source="qpLSKPqk3YdfdB79UOGh-42" target="qpLSKPqk3YdfdB79UOGh-49" edge="1">
          <mxGeometry width="50" height="50" relative="1" as="geometry">
            <mxPoint x="720" y="640" as="sourcePoint" />
            <mxPoint x="770" y="590" as="targetPoint" />
            <Array as="points">
              <mxPoint x="660" y="480" />
            </Array>
          </mxGeometry>
        </mxCell>
        <mxCell id="qpLSKPqk3YdfdB79UOGh-54" value="" style="curved=1;endArrow=classic;html=1;rounded=0;exitX=1;exitY=0.5;exitDx=0;exitDy=0;entryX=1;entryY=0.5;entryDx=0;entryDy=0;dashed=1;" parent="1" source="qpLSKPqk3YdfdB79UOGh-49" target="qpLSKPqk3YdfdB79UOGh-51" edge="1">
          <mxGeometry width="50" height="50" relative="1" as="geometry">
            <mxPoint x="890" y="630" as="sourcePoint" />
            <mxPoint x="940" y="580" as="targetPoint" />
            <Array as="points">
              <mxPoint x="1170" y="450" />
            </Array>
          </mxGeometry>
        </mxCell>
        <mxCell id="qpLSKPqk3YdfdB79UOGh-55" value="&lt;span style=&quot;color: rgb(0, 0, 0); font-family: Helvetica; font-size: 12px; font-style: normal; font-variant-ligatures: normal; font-variant-caps: normal; font-weight: 400; letter-spacing: normal; orphans: 2; text-align: center; text-indent: 0px; text-transform: none; widows: 2; word-spacing: 0px; -webkit-text-stroke-width: 0px; white-space: normal; background-color: rgb(251, 251, 251); text-decoration-thickness: initial; text-decoration-style: initial; text-decoration-color: initial; display: inline !important; float: none;&quot;&gt;AddLambda : Broadcast&lt;/span&gt;" style="text;whiteSpace=wrap;html=1;" parent="1" vertex="1">
          <mxGeometry x="1111" y="436" width="229" height="20" as="geometry" />
        </mxCell>
        <mxCell id="qpLSKPqk3YdfdB79UOGh-58" value="" style="rounded=0;whiteSpace=wrap;html=1;" parent="1" vertex="1">
          <mxGeometry x="1230" y="456" width="410" height="110" as="geometry" />
        </mxCell>
        <mxCell id="qpLSKPqk3YdfdB79UOGh-59" value="" style="rounded=0;whiteSpace=wrap;html=1;" parent="1" vertex="1">
          <mxGeometry x="1230" y="270" width="410" height="110" as="geometry" />
        </mxCell>
        <mxCell id="qpLSKPqk3YdfdB79UOGh-60" value="AuraWidgetController" style="text;html=1;align=center;verticalAlign=middle;whiteSpace=wrap;rounded=0;" parent="1" vertex="1">
          <mxGeometry x="1260" y="262" width="60" height="30" as="geometry" />
        </mxCell>
        <mxCell id="qpLSKPqk3YdfdB79UOGh-61" value="OverlayWidgetController" style="text;html=1;align=center;verticalAlign=middle;whiteSpace=wrap;rounded=0;" parent="1" vertex="1">
          <mxGeometry x="1268" y="452" width="60" height="30" as="geometry" />
        </mxCell>
        <mxCell id="qpLSKPqk3YdfdB79UOGh-62" value="" style="endArrow=classic;html=1;rounded=0;" parent="1" source="qpLSKPqk3YdfdB79UOGh-58" target="qpLSKPqk3YdfdB79UOGh-59" edge="1">
          <mxGeometry width="50" height="50" relative="1" as="geometry">
            <mxPoint x="1300" y="460" as="sourcePoint" />
            <mxPoint x="1350" y="410" as="targetPoint" />
          </mxGeometry>
        </mxCell>
        <mxCell id="qpLSKPqk3YdfdB79UOGh-63" value="PlayerController" style="rounded=0;whiteSpace=wrap;html=1;" parent="1" vertex="1">
          <mxGeometry x="1240.5" y="320" width="115" height="20" as="geometry" />
        </mxCell>
        <mxCell id="qpLSKPqk3YdfdB79UOGh-64" value="PlayerState" style="rounded=0;whiteSpace=wrap;html=1;" parent="1" vertex="1">
          <mxGeometry x="1360" y="320" width="115" height="20" as="geometry" />
        </mxCell>
        <mxCell id="qpLSKPqk3YdfdB79UOGh-65" value="ASC" style="rounded=0;whiteSpace=wrap;html=1;" parent="1" vertex="1">
          <mxGeometry x="1240.5" y="350" width="115" height="20" as="geometry" />
        </mxCell>
        <mxCell id="qpLSKPqk3YdfdB79UOGh-66" value="Attributes" style="rounded=0;whiteSpace=wrap;html=1;" parent="1" vertex="1">
          <mxGeometry x="1360" y="350" width="115" height="20" as="geometry" />
        </mxCell>
        <mxCell id="qpLSKPqk3YdfdB79UOGh-67" value="" style="rounded=0;whiteSpace=wrap;html=1;" parent="1" vertex="1">
          <mxGeometry x="730" y="790" width="310" height="190" as="geometry" />
        </mxCell>
        <mxCell id="qpLSKPqk3YdfdB79UOGh-68" value="AuraHUD" style="text;html=1;align=center;verticalAlign=middle;whiteSpace=wrap;rounded=0;" parent="1" vertex="1">
          <mxGeometry x="740" y="790" width="60" height="30" as="geometry" />
        </mxCell>
        <mxCell id="qpLSKPqk3YdfdB79UOGh-69" value="UOverlayWidgetController*&amp;nbsp;" style="rounded=0;whiteSpace=wrap;html=1;" parent="1" vertex="1">
          <mxGeometry x="750" y="830" width="190" height="20" as="geometry" />
        </mxCell>
        <mxCell id="qpLSKPqk3YdfdB79UOGh-70" value="BindCallbackToDependencies()" style="rounded=1;whiteSpace=wrap;html=1;" parent="1" vertex="1">
          <mxGeometry x="1240.5" y="520" width="177" height="20" as="geometry" />
        </mxCell>
        <mxCell id="qpLSKPqk3YdfdB79UOGh-73" value="" style="curved=1;endArrow=classic;html=1;rounded=0;exitX=0;exitY=0.5;exitDx=0;exitDy=0;entryX=0.811;entryY=0.95;entryDx=0;entryDy=0;entryPerimeter=0;dashed=1;" parent="1" source="qpLSKPqk3YdfdB79UOGh-70" target="qpLSKPqk3YdfdB79UOGh-51" edge="1">
          <mxGeometry width="50" height="50" relative="1" as="geometry">
            <mxPoint x="1140" y="570" as="sourcePoint" />
            <mxPoint x="1190" y="520" as="targetPoint" />
            <Array as="points">
              <mxPoint x="1050" y="540" />
            </Array>
          </mxGeometry>
        </mxCell>
        <mxCell id="qpLSKPqk3YdfdB79UOGh-74" value="Listen : read tagRow + Broadcast" style="text;html=1;align=center;verticalAlign=middle;whiteSpace=wrap;rounded=0;" parent="1" vertex="1">
          <mxGeometry x="1079" y="516" width="158" height="30" as="geometry" />
        </mxCell>
        <mxCell id="qpLSKPqk3YdfdB79UOGh-76" value="ASC-&amp;gt;GetGameplayAttributeValueChangDelegate:&lt;div&gt;&amp;nbsp;&lt;div&gt;Health, Mana, MaxHealth, MaxMana Attributes + Broadcast&lt;/div&gt;&lt;/div&gt;" style="rounded=1;whiteSpace=wrap;html=1;" parent="1" vertex="1">
          <mxGeometry x="1440" y="516" width="330" height="44" as="geometry" />
        </mxCell>
        <mxCell id="qpLSKPqk3YdfdB79UOGh-77" value="" style="curved=1;endArrow=classic;html=1;rounded=0;exitX=1;exitY=0.5;exitDx=0;exitDy=0;entryX=0;entryY=0.5;entryDx=0;entryDy=0;dashed=1;" parent="1" source="qpLSKPqk3YdfdB79UOGh-70" target="qpLSKPqk3YdfdB79UOGh-76" edge="1">
          <mxGeometry width="50" height="50" relative="1" as="geometry">
            <mxPoint x="1350" y="640" as="sourcePoint" />
            <mxPoint x="1400" y="590" as="targetPoint" />
            <Array as="points">
              <mxPoint x="1430" y="530" />
            </Array>
          </mxGeometry>
        </mxCell>
        <mxCell id="qpLSKPqk3YdfdB79UOGh-78" value="OnHealthChanged" style="rounded=0;whiteSpace=wrap;html=1;" parent="1" vertex="1">
          <mxGeometry x="1440" y="470" width="115" height="20" as="geometry" />
        </mxCell>
        <mxCell id="qpLSKPqk3YdfdB79UOGh-79" value="OnManaChanged" style="rounded=0;whiteSpace=wrap;html=1;" parent="1" vertex="1">
          <mxGeometry x="1440" y="490" width="115" height="20" as="geometry" />
        </mxCell>
        <mxCell id="qpLSKPqk3YdfdB79UOGh-81" value="OnEffectApplied" style="rounded=0;whiteSpace=wrap;html=1;" parent="1" vertex="1">
          <mxGeometry x="1240.5" y="496" width="115" height="20" as="geometry" />
        </mxCell>
        <mxCell id="qpLSKPqk3YdfdB79UOGh-82" value="" style="rounded=0;whiteSpace=wrap;html=1;" parent="1" vertex="1">
          <mxGeometry x="1140" y="790" width="270" height="160" as="geometry" />
        </mxCell>
        <mxCell id="qpLSKPqk3YdfdB79UOGh-83" value="AuraUserWidget" style="text;html=1;align=center;verticalAlign=middle;whiteSpace=wrap;rounded=0;" parent="1" vertex="1">
          <mxGeometry x="1157" y="790" width="60" height="30" as="geometry" />
        </mxCell>
        <mxCell id="qpLSKPqk3YdfdB79UOGh-84" value="" style="rounded=0;whiteSpace=wrap;html=1;" parent="1" vertex="1">
          <mxGeometry x="730" y="739" width="90" height="30" as="geometry" />
        </mxCell>
        <mxCell id="qpLSKPqk3YdfdB79UOGh-85" value="AHUD" style="text;html=1;align=center;verticalAlign=middle;whiteSpace=wrap;rounded=0;" parent="1" vertex="1">
          <mxGeometry x="735.5" y="739" width="60" height="30" as="geometry" />
        </mxCell>
        <mxCell id="qpLSKPqk3YdfdB79UOGh-86" value="" style="rounded=0;whiteSpace=wrap;html=1;" parent="1" vertex="1">
          <mxGeometry x="1140" y="736" width="90" height="30" as="geometry" />
        </mxCell>
        <mxCell id="qpLSKPqk3YdfdB79UOGh-87" value="UUserWidget" style="text;html=1;align=center;verticalAlign=middle;whiteSpace=wrap;rounded=0;" parent="1" vertex="1">
          <mxGeometry x="1145.5" y="736" width="60" height="30" as="geometry" />
        </mxCell>
        <mxCell id="qpLSKPqk3YdfdB79UOGh-88" value="SetWidgetController(...)" style="rounded=1;whiteSpace=wrap;html=1;" parent="1" vertex="1">
          <mxGeometry x="1155" y="850" width="175" height="30" as="geometry" />
        </mxCell>
        <mxCell id="qpLSKPqk3YdfdB79UOGh-89" style="edgeStyle=orthogonalEdgeStyle;rounded=0;orthogonalLoop=1;jettySize=auto;html=1;exitX=0.5;exitY=1;exitDx=0;exitDy=0;" parent="1" source="qpLSKPqk3YdfdB79UOGh-82" target="qpLSKPqk3YdfdB79UOGh-82" edge="1">
          <mxGeometry relative="1" as="geometry" />
        </mxCell>
        <mxCell id="qpLSKPqk3YdfdB79UOGh-90" value="UOverlayWidgetController*&amp;nbsp;" style="rounded=0;whiteSpace=wrap;html=1;" parent="1" vertex="1">
          <mxGeometry x="1150" y="830" width="190" height="20" as="geometry" />
        </mxCell>
        <mxCell id="qpLSKPqk3YdfdB79UOGh-91" value="[BlueprintImplementableEvent]&lt;div&gt;&lt;br&gt;&lt;/div&gt;&lt;div&gt;Hook: WidgetControllerSet()&amp;nbsp;&lt;/div&gt;" style="rounded=1;whiteSpace=wrap;html=1;" parent="1" vertex="1">
          <mxGeometry x="1240.5" y="880" width="160" height="50" as="geometry" />
        </mxCell>
        <mxCell id="qpLSKPqk3YdfdB79UOGh-92" value="CreateWidget(OverlayWidgetClass)&lt;div&gt;NewObject&amp;lt;UOverlayWidgetController&amp;gt;()&lt;/div&gt;&lt;div&gt;OverlayWidget-&amp;gt;SetWidgetController()&lt;/div&gt;&lt;div&gt;WidgetController-&amp;gt;BroadcaseInitialValue()&lt;/div&gt;&lt;div&gt;&lt;span style=&quot;background-color: initial;&quot;&gt;Widget&lt;/span&gt;&lt;span style=&quot;background-color: initial;&quot;&gt;Controller&lt;/span&gt;-&amp;gt;BindCallbackToDep()&lt;/div&gt;" style="rounded=1;whiteSpace=wrap;html=1;align=left;" parent="1" vertex="1">
          <mxGeometry x="750" y="860" width="240" height="100" as="geometry" />
        </mxCell>
        <mxCell id="qpLSKPqk3YdfdB79UOGh-93" value="" style="curved=1;endArrow=classic;html=1;rounded=0;exitX=1;exitY=0.25;exitDx=0;exitDy=0;entryX=0;entryY=0.5;entryDx=0;entryDy=0;dashed=1;" parent="1" source="qpLSKPqk3YdfdB79UOGh-92" target="qpLSKPqk3YdfdB79UOGh-88" edge="1">
          <mxGeometry width="50" height="50" relative="1" as="geometry">
            <mxPoint x="1020" y="930" as="sourcePoint" />
            <mxPoint x="1070" y="880" as="targetPoint" />
            <Array as="points">
              <mxPoint x="1080" y="900" />
            </Array>
          </mxGeometry>
        </mxCell>
        <mxCell id="qpLSKPqk3YdfdB79UOGh-95" value="" style="shape=parallelogram;perimeter=parallelogramPerimeter;whiteSpace=wrap;html=1;fixedSize=1;" parent="1" vertex="1">
          <mxGeometry x="1470" y="830" width="190" height="90" as="geometry" />
        </mxCell>
        <mxCell id="qpLSKPqk3YdfdB79UOGh-96" value="" style="curved=1;endArrow=classic;html=1;rounded=0;exitX=0;exitY=0.5;exitDx=0;exitDy=0;entryX=1;entryY=0.5;entryDx=0;entryDy=0;dashed=1;" parent="1" source="qpLSKPqk3YdfdB79UOGh-95" target="qpLSKPqk3YdfdB79UOGh-91" edge="1">
          <mxGeometry width="50" height="50" relative="1" as="geometry">
            <mxPoint x="1470" y="960" as="sourcePoint" />
            <mxPoint x="1420" y="1010" as="targetPoint" />
            <Array as="points">
              <mxPoint x="1430" y="860" />
            </Array>
          </mxGeometry>
        </mxCell>
        <mxCell id="qpLSKPqk3YdfdB79UOGh-97" value="Listen" style="text;html=1;align=center;verticalAlign=middle;resizable=0;points=[];autosize=1;strokeColor=none;fillColor=none;" parent="1" vertex="1">
          <mxGeometry x="1406" y="844" width="60" height="30" as="geometry" />
        </mxCell>
        <mxCell id="qpLSKPqk3YdfdB79UOGh-99" value="&lt;span style=&quot;text-wrap: wrap;&quot;&gt;WBP_Overlay&lt;/span&gt;" style="text;html=1;align=center;verticalAlign=middle;resizable=0;points=[];autosize=1;strokeColor=none;fillColor=none;" parent="1" vertex="1">
          <mxGeometry x="1480" y="830" width="100" height="30" as="geometry" />
        </mxCell>
        <mxCell id="qpLSKPqk3YdfdB79UOGh-100" value="UOverlayWidgetController*&amp;nbsp;" style="rounded=0;whiteSpace=wrap;html=1;" parent="1" vertex="1">
          <mxGeometry x="1490" y="874" width="150" height="20" as="geometry" />
        </mxCell>
        <mxCell id="T4YBwFK2pWhJkRFQBHoJ-1" value="" style="rounded=0;whiteSpace=wrap;html=1;" vertex="1" parent="1">
          <mxGeometry x="736" y="271" width="365" height="90" as="geometry" />
        </mxCell>
        <mxCell id="T4YBwFK2pWhJkRFQBHoJ-2" value="AuraAttributeSet" style="text;html=1;align=center;verticalAlign=middle;whiteSpace=wrap;rounded=0;" vertex="1" parent="1">
          <mxGeometry x="753" y="269" width="60" height="30" as="geometry" />
        </mxCell>
        <mxCell id="T4YBwFK2pWhJkRFQBHoJ-3" value="" style="rounded=0;whiteSpace=wrap;html=1;" vertex="1" parent="1">
          <mxGeometry x="783.5" y="213" width="270" height="40" as="geometry" />
        </mxCell>
        <mxCell id="T4YBwFK2pWhJkRFQBHoJ-4" value="UAttributeSet" style="text;html=1;align=center;verticalAlign=middle;whiteSpace=wrap;rounded=0;" vertex="1" parent="1">
          <mxGeometry x="798.5" y="210" width="60" height="30" as="geometry" />
        </mxCell>
        <mxCell id="T4YBwFK2pWhJkRFQBHoJ-5" value="" style="endArrow=classic;html=1;rounded=0;entryX=0.5;entryY=1;entryDx=0;entryDy=0;" edge="1" parent="1" target="T4YBwFK2pWhJkRFQBHoJ-3">
          <mxGeometry width="50" height="50" relative="1" as="geometry">
            <mxPoint x="910" y="270" as="sourcePoint" />
            <mxPoint x="873" y="63" as="targetPoint" />
          </mxGeometry>
        </mxCell>
        <mxCell id="T4YBwFK2pWhJkRFQBHoJ-6" value="PreAttrbuteChange" style="rounded=1;whiteSpace=wrap;html=1;" vertex="1" parent="1">
          <mxGeometry x="745" y="335" width="135" height="20" as="geometry" />
        </mxCell>
        <mxCell id="T4YBwFK2pWhJkRFQBHoJ-7" value="PostGameplayEffectExecute" style="rounded=1;whiteSpace=wrap;html=1;" vertex="1" parent="1">
          <mxGeometry x="880" y="335" width="160" height="20" as="geometry" />
        </mxCell>
        <mxCell id="T4YBwFK2pWhJkRFQBHoJ-8" value="Vital/Primary/Secondary Attribute" style="rounded=0;whiteSpace=wrap;html=1;" vertex="1" parent="1">
          <mxGeometry x="745" y="299" width="195" height="20" as="geometry" />
        </mxCell>
        <mxCell id="T4YBwFK2pWhJkRFQBHoJ-9" value="" style="rounded=0;whiteSpace=wrap;html=1;" vertex="1" parent="1">
          <mxGeometry x="1230" y="80" width="410" height="110" as="geometry" />
        </mxCell>
        <mxCell id="T4YBwFK2pWhJkRFQBHoJ-10" value="AuraPlayerController" style="text;html=1;align=center;verticalAlign=middle;whiteSpace=wrap;rounded=0;" vertex="1" parent="1">
          <mxGeometry x="1256" y="80" width="60" height="30" as="geometry" />
        </mxCell>
        <mxCell id="T4YBwFK2pWhJkRFQBHoJ-12" value="UInputMappingContext*" style="rounded=0;whiteSpace=wrap;html=1;" vertex="1" parent="1">
          <mxGeometry x="1237" y="125" width="143" height="20" as="geometry" />
        </mxCell>
        <mxCell id="T4YBwFK2pWhJkRFQBHoJ-13" value="UInputAction*" style="rounded=0;whiteSpace=wrap;html=1;" vertex="1" parent="1">
          <mxGeometry x="1237" y="150" width="143" height="20" as="geometry" />
        </mxCell>
        <mxCell id="T4YBwFK2pWhJkRFQBHoJ-14" value="" style="rounded=0;whiteSpace=wrap;html=1;" vertex="1" parent="1">
          <mxGeometry x="1230" y="15" width="160" height="40" as="geometry" />
        </mxCell>
        <mxCell id="T4YBwFK2pWhJkRFQBHoJ-15" value="APlayerController" style="text;html=1;align=center;verticalAlign=middle;whiteSpace=wrap;rounded=0;" vertex="1" parent="1">
          <mxGeometry x="1247" y="9" width="60" height="30" as="geometry" />
        </mxCell>
        <mxCell id="T4YBwFK2pWhJkRFQBHoJ-16" value="SetupInputComponent" style="rounded=1;whiteSpace=wrap;html=1;" vertex="1" parent="1">
          <mxGeometry x="1230" y="33" width="135" height="20" as="geometry" />
        </mxCell>
        <mxCell id="T4YBwFK2pWhJkRFQBHoJ-17" value="" style="endArrow=classic;html=1;rounded=0;exitX=0.25;exitY=0;exitDx=0;exitDy=0;" edge="1" parent="1" source="T4YBwFK2pWhJkRFQBHoJ-9" target="T4YBwFK2pWhJkRFQBHoJ-14">
          <mxGeometry width="50" height="50" relative="1" as="geometry">
            <mxPoint x="1328" y="95" as="sourcePoint" />
            <mxPoint x="1314" y="55" as="targetPoint" />
          </mxGeometry>
        </mxCell>
        <mxCell id="T4YBwFK2pWhJkRFQBHoJ-18" value="AuraEnemy" style="text;html=1;align=center;verticalAlign=middle;whiteSpace=wrap;rounded=0;" vertex="1" parent="1">
          <mxGeometry x="-136" y="777" width="60" height="30" as="geometry" />
        </mxCell>
        <mxCell id="T4YBwFK2pWhJkRFQBHoJ-19" value="" style="endArrow=classic;html=1;rounded=0;exitX=0.5;exitY=0;exitDx=0;exitDy=0;entryX=0;entryY=0.5;entryDx=0;entryDy=0;" edge="1" parent="1" source="qpLSKPqk3YdfdB79UOGh-3" target="qpLSKPqk3YdfdB79UOGh-1">
          <mxGeometry width="50" height="50" relative="1" as="geometry">
            <mxPoint x="413" y="560" as="sourcePoint" />
            <mxPoint x="412" y="460" as="targetPoint" />
            <Array as="points">
              <mxPoint x="-5" y="345" />
            </Array>
          </mxGeometry>
        </mxCell>
        <mxCell id="T4YBwFK2pWhJkRFQBHoJ-20" value="InitAbilityActorInfo()" style="rounded=1;whiteSpace=wrap;html=1;" vertex="1" parent="1">
          <mxGeometry x="-130" y="865" width="177" height="20" as="geometry" />
        </mxCell>
        <mxCell id="T4YBwFK2pWhJkRFQBHoJ-21" value="Create ASC" style="rounded=0;whiteSpace=wrap;html=1;" vertex="1" parent="1">
          <mxGeometry x="-130" y="820" width="115" height="20" as="geometry" />
        </mxCell>
        <mxCell id="T4YBwFK2pWhJkRFQBHoJ-22" value="Create AttributeSet" style="rounded=0;whiteSpace=wrap;html=1;" vertex="1" parent="1">
          <mxGeometry x="-15" y="820" width="115" height="20" as="geometry" />
        </mxCell>
      </root>
    </mxGraphModel>
  </diagram>
</mxfile>
